<svg xmlns="http://www.w3.org/2000/svg" fill="none" viewBox="0 0 24 24"><path fill="#0ACF83" d="M8.996 21a3 3 0 0 0 2.995-3v-3H8.996a3 3 0 0 0-2.995 3c0 1.656 1.342 3 2.995 3"/><path fill="#A259FF" d="M6.001 12c0-1.656 1.342-3 2.995-3h2.995v6H8.996a3 3 0 0 1-2.995-3"/><path fill="#F24E1E" d="M6.001 6c0-1.656 1.342-3 2.995-3h2.995v6H8.996a3 3 0 0 1-2.995-3"/><path fill="#FF7262" d="M11.99 3h2.996a3 3 0 0 1 2.994 3c0 1.656-1.34 3-2.994 3H11.99z"/><path fill="#1ABCFE" d="M17.98 12c0 1.656-1.34 3-2.994 3a3 3 0 0 1-2.995-3c0-1.656 1.341-3 2.995-3a3 3 0 0 1 2.994 3"/></svg>