<svg xmlns="http://www.w3.org/2000/svg" fill="none" viewBox="0 0 24 24"><path fill="#EA4335" d="M6.908 5.036a4.5 4.5 0 0 1 2.928.634c.489.288.88.705 1.28 1.1q.435.43.87.857l.01.03q-.324.32-.74 1.285-.87.306-1.187.618c-.472-.455-.93-.925-1.4-1.382-.447-.42-1.123-.588-1.708-.396A1.71 1.71 0 0 0 5.749 9.3c-.023.36.07.726.266 1.03.12.196.299.345.457.508.382.384.773.759 1.149 1.148q-.302.296-.713 1.146-.876.414-1.216.755c-.508-.477-.993-.98-1.496-1.463A4.3 4.3 0 0 1 3.06 10.14a4.4 4.4 0 0 1 .416-2.704A4.5 4.5 0 0 1 5.023 5.72a4.5 4.5 0 0 1 1.885-.684"/><path fill="#34A853" d="m12.006 16.305 4.388-4.325 1.186.705.743 1.206-6.317 6.25-4.382-4.336.84-1.183 1.1-.732z"/><path fill="#FBBC05" d="m10.073 9.564 1.104.597.829 1.32-4.382 4.324-1.932-1.918 4.38-4.323z"/><path fill="#4285F4" d="M17.297 5.063c1.286.218 2.468 1.02 3.117 2.157.738 1.247.778 2.867.123 4.158-.271.554-.686 1.022-1.128 1.448-.366.35-.714.724-1.086 1.065q-.969-.951-1.93-1.91c.456-.46.919-.913 1.376-1.371.294-.298.479-.706.494-1.126a1.7 1.7 0 0 0-.514-1.292 1.76 1.76 0 0 0-1.331-.482c-.418.02-.82.21-1.115.505l-3.297 3.266c-.647-.636-1.295-1.272-1.933-1.917l-.004-.004q.965-.951 1.928-1.904l1.399-1.38c.604-.609 1.4-1.006 2.234-1.189a4.8 4.8 0 0 1 1.667-.025z"/></svg>