<svg xmlns="http://www.w3.org/2000/svg" fill="none" viewBox="0 0 24 24"><path fill="url(#a)" d="M14.086 8.495 4.594 3.069a.38.38 0 0 0-.385.004.38.38 0 0 0-.193.331l.008 1.324 6.915 6.914z"/><path fill="url(#b)" d="M4.024 4.728c.012 2.97.046 10.18.062 13.77l6.857-6.856z"/><path fill="url(#c)" d="m19.52 11.6-5.434-3.105-3.15 3.147 3.554 3.555 5.033-2.932a.39.39 0 0 0 .192-.33.39.39 0 0 0-.196-.335z"/><path fill="url(#d)" d="m4.082 18.499.012 2.1a.384.384 0 0 0 .577.332l9.823-5.73-3.555-3.555z"/><defs><linearGradient id="a" x1="4.016" x2="14.088" y1="7.332" y2="7.332" gradientUnits="userSpaceOnUse"><stop stop-color="#63BE6B"/><stop offset=".506" stop-color="#5BBC6A"/><stop offset="1" stop-color="#4AB96A"/></linearGradient><linearGradient id="b" x1="4.022" x2="10.939" y1="11.615" y2="11.615" gradientUnits="userSpaceOnUse"><stop stop-color="#3EC6F2"/><stop offset="1" stop-color="#45AFE3"/></linearGradient><linearGradient id="c" x1="10.938" x2="19.714" y1="11.848" y2="11.848" gradientUnits="userSpaceOnUse"><stop stop-color="#FAA51A"/><stop offset=".387" stop-color="#FAB716"/><stop offset=".741" stop-color="#FAC412"/><stop offset="1" stop-color="#FAC80F"/></linearGradient><linearGradient id="d" x1="4.084" x2="14.494" y1="16.314" y2="16.314" gradientUnits="userSpaceOnUse"><stop stop-color="#EC3B50"/><stop offset="1" stop-color="#E7515B"/></linearGradient></defs></svg>