<svg xmlns="http://www.w3.org/2000/svg" fill="none" viewBox="0 0 24 24"><path fill="#FFFC00" d="M18.132 3A2.87 2.87 0 0 1 21 5.868v12.264A2.87 2.87 0 0 1 18.132 21H5.868A2.87 2.87 0 0 1 3 18.132V5.868A2.87 2.87 0 0 1 5.868 3z"/><path fill="#fff" d="M18.07 15.086c-.054-.176-.308-.3-.308-.3l-.063-.033a5 5 0 0 1-1.114-.73 3.8 3.8 0 0 1-.646-.735 2.8 2.8 0 0 1-.356-.733c-.024-.095-.02-.133 0-.182a.3.3 0 0 1 .09-.1c.141-.101.371-.25.513-.341l.29-.19c.197-.14.334-.281.413-.434a.75.75 0 0 0 .036-.628c-.11-.288-.378-.46-.72-.46q-.114.001-.233.026a3.6 3.6 0 0 0-.545.174l-.008-.003a.02.02 0 0 1-.006-.015c.016-.385.035-.903-.008-1.394a3.4 3.4 0 0 0-.279-1.147 3 3 0 0 0-.499-.746 3.1 3.1 0 0 0-.788-.634 3.65 3.65 0 0 0-1.84-.47c-.675 0-1.292.159-1.837.47-.409.233-.67.497-.79.634a3 3 0 0 0-.498.746 3.4 3.4 0 0 0-.28 1.147c-.042.494-.024.97-.007 1.394 0 .013-.01.022-.024.017a4 4 0 0 0-.537-.173 1 1 0 0 0-.232-.026c-.34 0-.61.172-.72.46a.75.75 0 0 0 .035.628c.081.153.216.294.415.433.06.043.166.111.289.19.138.09.361.236.505.336a.3.3 0 0 1 .097.106c.02.05.024.088-.002.19a2.8 2.8 0 0 1-.354.725q-.262.397-.645.735a5 5 0 0 1-1.114.73l-.07.037s-.252.129-.3.296c-.07.246.117.477.308.6.313.203.695.312.916.37q.092.025.168.048c.031.01.11.04.145.084.043.056.048.124.063.201.024.13.078.29.239.402.177.121.4.13.684.141.297.012.666.026 1.09.166.195.064.373.174.578.3.43.264.963.593 1.875.593.913 0 1.451-.33 1.883-.595.205-.125.38-.234.572-.297.424-.14.792-.154 1.09-.166.283-.01.507-.018.684-.141.172-.119.22-.296.244-.428.012-.066.02-.125.058-.173a.33.33 0 0 1 .14-.082q.078-.024.174-.05c.221-.059.5-.128.836-.32.407-.23.435-.513.392-.653z"/><path fill="#000" d="M18.42 14.95c-.09-.246-.262-.376-.456-.484a1 1 0 0 0-.098-.052l-.177-.09c-.608-.322-1.083-.729-1.41-1.21a3 3 0 0 1-.244-.43c-.027-.08-.026-.126-.006-.167a.3.3 0 0 1 .078-.081q.142-.095.286-.186l.3-.197c.25-.174.423-.36.532-.567.154-.292.173-.625.054-.939-.164-.434-.576-.704-1.073-.704q-.158 0-.312.034l-.08.019a9 9 0 0 0-.03-.92c-.094-1.086-.474-1.656-.87-2.109a3.5 3.5 0 0 0-.886-.714A4 4 0 0 0 12 5.633a4 4 0 0 0-2.026.52 3.4 3.4 0 0 0-.887.713c-.396.453-.776 1.023-.87 2.109a10 10 0 0 0-.029.92l-.08-.02a1.5 1.5 0 0 0-.313-.034c-.497 0-.91.27-1.073.705-.119.314-.1.647.054.939.11.207.284.393.533.567.067.046.17.114.3.197.07.045.172.112.273.18.016.01.07.05.09.088.02.043.02.09-.01.175a2.7 2.7 0 0 1-.24.42c-.322.472-.783.871-1.37 1.19-.312.165-.636.275-.772.646-.104.28-.035.6.226.869q.127.137.33.25c.322.177.595.264.81.323.037.012.124.04.162.074.096.083.082.21.21.394a.9.9 0 0 0 .24.243c.265.185.566.196.884.209.287.011.613.024.984.146.154.05.314.15.5.263.443.274 1.053.648 2.073.648s1.633-.376 2.081-.65c.185-.113.344-.211.493-.26.371-.123.697-.136.984-.147.318-.013.617-.024.885-.209a.9.9 0 0 0 .273-.296c.09-.156.09-.266.175-.34a.5.5 0 0 1 .154-.07 3.6 3.6 0 0 0 .82-.327c.145-.08.258-.167.348-.266l.003-.004c.244-.265.306-.575.205-.849zm-.906.486c-.553.305-.92.272-1.206.455-.242.157-.1.494-.275.615-.217.15-.858-.01-1.685.263-.682.226-1.118.874-2.347.874-1.23 0-1.654-.645-2.347-.874-.827-.273-1.468-.112-1.684-.262-.176-.122-.033-.459-.276-.616-.285-.184-.653-.151-1.206-.456-.352-.194-.153-.314-.035-.37 2.003-.97 2.321-2.468 2.336-2.58.018-.134.037-.24-.11-.378-.144-.132-.779-.525-.954-.648-.292-.203-.42-.406-.325-.656.066-.173.227-.238.398-.238q.08 0 .16.018c.32.07.63.23.81.273a.3.3 0 0 0 .064.008c.096 0 .13-.048.123-.157-.02-.35-.07-1.032-.015-1.67.075-.877.358-1.311.694-1.696.162-.185.92-.986 2.368-.986 1.453 0 2.207.801 2.37.986.335.384.618.818.693 1.696.056.638.008 1.32-.015 1.67-.007.115.028.157.123.157a.3.3 0 0 0 .065-.008c.18-.043.49-.204.81-.273a1 1 0 0 1 .16-.018c.17 0 .331.066.397.238.095.25-.034.453-.325.656-.175.123-.81.516-.953.648-.148.137-.129.243-.11.378.013.112.332 1.61 2.335 2.58.114.056.315.176-.038.37z"/></svg>