<svg xmlns="http://www.w3.org/2000/svg" fill="none" viewBox="0 0 24 24"><path fill="url(#a)" d="M19.242 3H4.758C3.787 3 3 3.787 3 4.758v14.484C3 20.213 3.787 21 4.758 21h14.484c.971 0 1.758-.787 1.758-1.758V4.758C21 3.787 20.213 3 19.242 3"/><path fill="#fff" d="M17.816 5.34h-3.802a.844.844 0 0 0-.844.844v6.187c0 .466.378.844.844.844h3.802a.844.844 0 0 0 .844-.844V6.184a.844.844 0 0 0-.844-.844m-7.83 0H6.184a.844.844 0 0 0-.844.844V16.87c0 .466.378.844.844.844h3.802a.844.844 0 0 0 .844-.844V6.184a.844.844 0 0 0-.844-.844"/><defs><linearGradient id="a" x1="12" x2="12" y1="3" y2="21" gradientUnits="userSpaceOnUse"><stop stop-color="#0091E6"/><stop offset="1" stop-color="#0079BF"/></linearGradient></defs></svg>