<svg xmlns="http://www.w3.org/2000/svg" fill="none" viewBox="0 0 24 24"><path fill="#1DA1F2" d="M8.66 19.634c6.794 0 10.508-5.63 10.508-10.511q0-.24-.01-.478A7.5 7.5 0 0 0 21 6.732a7.4 7.4 0 0 1-2.12.582 3.7 3.7 0 0 0 1.623-2.044 7.4 7.4 0 0 1-2.345.897 3.694 3.694 0 0 0-6.293 3.369 10.5 10.5 0 0 1-7.612-3.86 3.7 3.7 0 0 0-.5 1.857c0 1.282.652 2.413 1.643 3.075a3.7 3.7 0 0 1-1.673-.462v.047a3.695 3.695 0 0 0 2.963 3.622 3.7 3.7 0 0 1-1.668.063 3.7 3.7 0 0 0 3.45 2.566A7.4 7.4 0 0 1 3 17.974a10.45 10.45 0 0 0 5.66 1.66"/></svg>