<svg xmlns="http://www.w3.org/2000/svg" width="100" height="60" fill="none"><path fill="#fff" d="M0 0h100v60H0z"/><path fill="#ED1C24" d="M83.296 16.95a.87.87 0 0 1 .695-.508q5.31-1.213 10.619-2.43a.46.46 0 0 1 .27.02c.13.054.154.207.075.35q-.318.6-.636 1.193l-3.904 7.306a.776.776 0 0 1-.903.463.95.95 0 0 1-.38-.202 677 677 0 0 1-2.785-2.687q3.957-2.936 7.908-5.862a.04.04 0 0 1-.01-.02 7531 7531 0 0 1-8.73 5.069c-.686-.666-1.371-1.322-2.042-1.992a1.3 1.3 0 0 1-.217-.454q.024-.112.04-.246m2.529 6.207a.544.544 0 0 1-.814-.484c-.04-.764-.064-1.528-.098-2.292-.005-.079-.005-.158-.01-.266.813.774 1.607 1.533 2.415 2.307-.073.04-.128.079-.182.103M54.575 42.176V27.628a3.33 3.33 0 0 1 .941-2.544 3.62 3.62 0 0 1 2.598-.892h4.265c.782-.05 1.56.148 2.223.567a3.22 3.22 0 0 1 1.346 2.711v6.513a3.62 3.62 0 0 1-.853 2.504 3.4 3.4 0 0 1-2.618 1.267h-5.65v4.417h-2.252zm2.272-8.016c.007.358.145.7.39.961.224.222.519.36.833.39h4.348a.4.4 0 0 0 .158-.025 1.28 1.28 0 0 0 1.094-1.065q.03-.128.025-.261V27.5a1.3 1.3 0 0 0-.247-.75 1.4 1.4 0 0 0-.74-.31H58.44q-1.612 0-1.612 1.375v6.089a.8.8 0 0 0 .02.256m10.18-.05v-1.626a4.92 4.92 0 0 1 .803-2.948 3.08 3.08 0 0 1 2.667-1.267h5.6v-.917a.9.9 0 0 0-.26-.64.8.8 0 0 0-.597-.277h-8.218v-2.248h8.035q2.662 0 3.23 2.51.042.309.049.62v6.976a3.2 3.2 0 0 1-.493 1.73q-1.087 1.731-2.815 1.731h-4.521a3.28 3.28 0 0 1-1.962-.7 3.63 3.63 0 0 1-1.316-1.657 3.8 3.8 0 0 1-.203-1.286m2.849 1.189c.404.164.841.235 1.277.207h3.071q1.871 0 1.873-1.346v-2.199q0-1.293-1.587-1.449h-3.618q-1.613.177-1.613 1.45v2.198a1.16 1.16 0 0 0 .597 1.139m9.56 6.876v-2.248h7.853q1.116-.177 1.114-1.45v-.724H82.73a3.25 3.25 0 0 1-3.293-3.308v-10.26h2.248v9.639q0 1.68 1.617 1.68h3.54q1.56 0 1.562-1.449v-9.874l2.258.005-.01 14.158a4.06 4.06 0 0 1-.877 2.766 3.44 3.44 0 0 1-2.687 1.06h-7.651z"/><path fill="#ED1C24" fill-rule="evenodd" d="M5 24.207h7.962v1.72H11.62a.786.786 0 0 0-.789.779v8.514a.786.786 0 0 0 .789.779h1.34v1.725H5V36h1.538a.78.78 0 0 0 .784-.78v-8.513a.785.785 0 0 0-.784-.779H5zm9.313 0h7.04l1.794 4.145 1.78 4.147 1.78-4.147 1.784-4.146h6.729v1.721h-1.504a.794.794 0 0 0-.793.784v8.573a.79.79 0 0 0 .793.784h1.504v1.656h-8.046l-.01-1.68h1.11s.986.152 1.045-.79l.04-7.922-4.462 10.382v.015H23.29v-.015l-4.462-10.382.04 7.922c.059.942 1.045.79 1.045.79h1.109l-.01 1.68h-6.7v-1.656h1.5a.79.79 0 0 0 .788-.784V26.71a.79.79 0 0 0-.789-.784h-1.498zm36.944 13.517H36.59v-1.666h1.484a.79.79 0 0 0 .789-.784v-8.573a.79.79 0 0 0-.789-.784H36.59v-1.725h14.667v5.3H49.29a9.8 9.8 0 0 0-.538-2.574c-.434-1-2.4-.927-2.4-.927h-3.935l-.024 3.875c2.578.06 3.268.192 3.09-2.268l1.948-.01.005 6.395h-1.957s0-.345-.035-1.435c-.034-1.178-1.878-.912-3.036-.883v4.28l4.244.014c1.666-.113 2.145-.941 2.41-1.75a8.7 8.7 0 0 0 .223-2.277l1.962.005v5.787z" clip-rule="evenodd"/></svg>