<svg xmlns="http://www.w3.org/2000/svg" fill="none" viewBox="0 0 24 24"><path fill="#3DDB85" d="M16.142 14.471a.743.743 0 0 1-.75-.74c0-.407.337-.738.75-.738.414 0 .75.331.75.739a.745.745 0 0 1-.75.739m-8.284 0a.743.743 0 0 1-.75-.74c0-.407.336-.738.75-.738.413 0 .75.331.75.739a.746.746 0 0 1-.75.739m8.553-4.452 1.498-2.558a.304.304 0 0 0-.114-.42.316.316 0 0 0-.426.113l-1.516 2.59A9.4 9.4 0 0 0 12 8.931a9.4 9.4 0 0 0-3.853.813l-1.516-2.59a.316.316 0 0 0-.518-.034.3.3 0 0 0-.022.342l1.498 2.557A8.72 8.72 0 0 0 3 17h18a8.72 8.72 0 0 0-4.589-6.981"/></svg>