<svg xmlns="http://www.w3.org/2000/svg" fill="none" viewBox="0 0 24 24"><path fill="#1769FF" d="M19 3H5a2 2 0 0 0-2 2v14a2 2 0 0 0 2 2h14a2 2 0 0 0 2-2V5a2 2 0 0 0-2-2"/><path fill="#fff" d="M9.358 7.922q.582 0 1.063.103.48.102.822.337.343.233.532.623.189.389.188.96 0 .616-.28 1.027-.28.412-.828.675.754.217 1.126.76.37.541.371 1.307 0 .617-.24 1.069-.24.45-.646.736-.405.287-.925.423a4.2 4.2 0 0 1-1.067.137H5.52V7.922zm-.228 3.301q.48 0 .788-.228.31-.23.309-.742a.95.95 0 0 0-.103-.468.76.76 0 0 0-.275-.286 1.2 1.2 0 0 0-.393-.143 2.6 2.6 0 0 0-.463-.04H7.314v1.909zm.103 3.461q.255 0 .503-.051.24-.051.422-.171a.9.9 0 0 0 .292-.326q.108-.205.109-.525 0-.629-.355-.897-.354-.269-.936-.268H7.314v2.239zm5.376-.171q.365.354 1.05.354.492 0 .846-.246.353-.245.434-.52h1.428q-.343 1.064-1.051 1.52t-1.714.457q-.696 0-1.256-.222a2.6 2.6 0 0 1-.948-.635 2.8 2.8 0 0 1-.6-.982q-.21-.571-.211-1.256 0-.663.216-1.234.217-.57.618-.987.399-.417.954-.657t1.228-.24q.753 0 1.314.292.56.291.92.782t.52 1.12.114 1.314H14.21q.033.786.399 1.14m1.833-3.107q-.292-.32-.885-.32-.39 0-.645.131a1.2 1.2 0 0 0-.628.737 2 2 0 0 0-.074.388h2.639q-.116-.616-.407-.936m-2.51-3.07h3.297v.914h-3.297z"/></svg>