<svg xmlns="http://www.w3.org/2000/svg" fill="none" viewBox="0 0 24 24"><path fill="#5865F2" d="M18.238 6.242a14.8 14.8 0 0 0-3.664-1.137.06.06 0 0 0-.059.028q-.252.457-.456.937a13.7 13.7 0 0 0-4.115 0 10 10 0 0 0-.464-.937.06.06 0 0 0-.058-.028 14.8 14.8 0 0 0-3.664 1.137.05.05 0 0 0-.024.02C3.4 9.75 2.76 13.15 3.074 16.508q.003.026.024.042a14.9 14.9 0 0 0 4.494 2.272.06.06 0 0 0 .064-.02q.52-.71.92-1.497a.057.057 0 0 0-.032-.079 10 10 0 0 1-1.404-.669.058.058 0 0 1-.006-.096q.143-.105.279-.218a.06.06 0 0 1 .058-.008c2.946 1.345 6.135 1.345 9.046 0a.06.06 0 0 1 .06.007q.136.111.279.22a.06.06 0 0 1 .014.075l-.019.02a9 9 0 0 1-1.405.669.06.06 0 0 0-.033.033.06.06 0 0 0 .003.047q.406.785.918 1.494c.014.02.04.029.063.022A14.9 14.9 0 0 0 20.9 16.55a.06.06 0 0 0 .023-.042c.376-3.882-.628-7.255-2.66-10.245a.05.05 0 0 0-.024-.021zm-9.223 8.22c-.887 0-1.618-.813-1.618-1.813s.717-1.815 1.618-1.815c.908 0 1.632.822 1.618 1.815 0 1-.717 1.814-1.618 1.814zm5.981 0c-.887 0-1.618-.813-1.618-1.813s.717-1.815 1.618-1.815c.908 0 1.632.822 1.618 1.815 0 1-.71 1.814-1.618 1.814z"/></svg>