<svg xmlns="http://www.w3.org/2000/svg" fill="none" viewBox="0 0 24 24"><path fill="#FBBC04" d="m3.414 15.71 5.98-10.24c.76.448 4.591 2.568 5.21 2.971l-5.98 10.24c-.655.863-6.038-1.66-5.21-2.972z"/><path fill="#4285F4" d="m20.597 15.709-5.98-10.238A3.05 3.05 0 0 0 10.5 4.396c-1.479.822-1.93 2.592-1.093 4.045l5.98 10.24a3.05 3.05 0 0 0 4.116 1.074c1.415-.822 1.93-2.655 1.093-4.045v-.001z"/><path fill="#34A853" d="M6.002 20.151c1.658 0 3.002-1.31 3.002-2.928 0-1.616-1.344-2.927-3.002-2.927S3 15.606 3 17.223s1.344 2.928 3.002 2.928"/></svg>