<svg xmlns="http://www.w3.org/2000/svg" fill="none" viewBox="0 0 24 24"><path fill="#7B83EB" d="M12.508 8.9a2.582 2.582 0 1 0 0-5.162 2.582 2.582 0 0 0 0 5.161z"/><path fill="#5059C9" d="M18.315 9.084a1.936 1.936 0 1 0 0-3.872 1.936 1.936 0 0 0 0 3.872m1.659.553h-4.348a.354.354 0 0 0-.354.354v4.485a2.83 2.83 0 0 0 2.194 2.812 2.768 2.768 0 0 0 3.337-2.708v-4.114a.83.83 0 0 0-.83-.83z"/><path fill="#7B83EB" d="M16.932 10.466v5.254a4.422 4.422 0 0 1-8.251 2.212 4 4 0 0 1-.277-.553 5 5 0 0 1-.182-.553 4.6 4.6 0 0 1-.139-1.106v-5.254a.83.83 0 0 1 .83-.83h7.19a.827.827 0 0 1 .83.83z"/><path fill="#4B53BC" d="M3.843 7.424h7.374a.737.737 0 0 1 .738.738v7.374a.737.737 0 0 1-.738.737H3.843a.737.737 0 0 1-.737-.737V8.162a.737.737 0 0 1 .737-.738"/><path fill="#fff" d="M9.731 10.176H8.078v4.435H6.993v-4.435H5.33v-1.09h4.402z"/></svg>