<svg xmlns="http://www.w3.org/2000/svg" fill="none" viewBox="0 0 24 24"><path fill="#1A73E8" d="M13.395 4.003a6.05 6.05 0 0 0-4.367.284 6 6 0 0 0-2.07 1.588l2.847 2.393z"/><path fill="#EA4335" d="M6.958 5.875a6 6 0 0 0-1.412 3.873c0 1.132.225 2.053.597 2.874l3.662-4.354z"/><path fill="#4285F4" d="M11.574 7.446a2.306 2.306 0 0 1 1.76 3.795l3.587-4.265a6.03 6.03 0 0 0-3.53-2.97L9.81 8.272a2.3 2.3 0 0 1 1.766-.826z"/><path fill="#FBBC04" d="M11.574 12.056a2.306 2.306 0 0 1-1.766-3.784l-3.665 4.354c.627 1.388 1.667 2.503 2.738 3.907l4.453-5.292a2.3 2.3 0 0 1-1.76.815"/><path fill="#34A853" d="M13.245 17.976c2.012-3.144 4.354-4.573 4.354-8.228a6 6 0 0 0-.678-2.779l-8.037 9.564c.34.447.686.92 1.02 1.446 1.22 1.889.883 3.021 1.67 3.021.788 0 .45-1.135 1.67-3.024z"/></svg>