<svg xmlns="http://www.w3.org/2000/svg" fill="none" viewBox="0 0 24 24"><path fill="#FBBB00" d="m6.99 13.877-.627 2.34-2.29.048A8.96 8.96 0 0 1 3 12c0-1.492.363-2.9 1.006-4.14l2.04.375.893 2.026a5.35 5.35 0 0 0 .05 3.616z"/><path fill="#518EF8" d="M20.843 10.319a9 9 0 0 1-3.209 8.7v-.001l-2.568-.131-.363-2.269a5.36 5.36 0 0 0 2.307-2.739h-4.812v-3.56z"/><path fill="#28B446" d="M17.634 19.018A8.96 8.96 0 0 1 12 21a9 9 0 0 1-7.927-4.735l2.916-2.387a5.35 5.35 0 0 0 7.713 2.74z"/><path fill="#F14336" d="M17.744 5.072 14.83 7.459a5.353 5.353 0 0 0-7.89 2.802l-2.932-2.4A9 9 0 0 1 12 3c2.184 0 4.186.778 5.744 2.072"/></svg>