<svg xmlns="http://www.w3.org/2000/svg" fill="none" viewBox="0 0 24 24"><path fill="#4185F3" d="M15.303 14.671H8.717l-2.82 4.796c.34.168.725.276.974.276 2.59 0 7.877-.038 10.502-.038.27 0 .522-.09.749-.23l-2.82-4.804z"/><path fill="#1767D1" d="m5.897 19.467 2.82-4.795H3.003c-.003.333.119.638.31.986.53.967 1.43 2.514 1.958 3.322.13.2.647.497.626.487"/><path fill="#E94235" d="m15.303 14.671 2.82 4.804c.365-.227.663-.585.857-.915a258 258 0 0 1 1.684-2.821c.236-.39.328-.74.323-1.068z"/><path fill="#30A753" d="m8.718 14.672 3.29-5.567-2.94-4.772c-.319.204-.59.48-.714.69-1.283 2.192-3.868 6.682-5.168 8.901a1.34 1.34 0 0 0-.184.748z"/><path fill="#F9BC00" d="m15.303 14.672-3.296-5.567 2.86-4.766c.317.203.666.474.79.685 1.283 2.19 3.868 6.68 5.168 8.9.135.228.175.487.162.748z"/><path fill="#0F8038" d="m9.067 4.334 2.94 4.77 2.86-4.765c-.296-.168-.714-.268-1.12-.28-1.125-.037-2.951-.052-3.933-.01-.243.01-.744.283-.747.285"/></svg>