<svg xmlns="http://www.w3.org/2000/svg" fill="none" viewBox="0 0 24 24"><path fill="url(#a)" d="M3 15.687q0 .355.243.538a.63.63 0 0 0 .52.128q.258-.053.364-.195c.106-.142.104-.252.104-.47V13.11a.65.65 0 0 0-.38-.609.6.6 0 0 0-.24-.048.57.57 0 0 0-.43.191.65.65 0 0 0-.18.466zm1.926 1.102q0 .257.172.386c.129.09.283.136.44.129a.73.73 0 0 0 .448-.129q.172-.13.172-.386v-6.005q0-.267-.18-.457a.58.58 0 0 0-.44-.191.57.57 0 0 0-.43.19.64.64 0 0 0-.18.458v6.005zm1.92.284q0 .258.174.386a.75.75 0 0 0 .453.13.7.7 0 0 0 .44-.13q.171-.128.171-.386v-5.48a.67.67 0 0 0-.378-.615.59.59 0 0 0-.677.144.66.66 0 0 0-.184.47zm1.925.027q0 .488.62.488t.62-.488V8.217q0-.747-.427-.844-.277-.07-.545.169t-.268.675zm1.96.257V7.693q0-.463.26-.55a4.7 4.7 0 0 1 3.501.497 5.04 5.04 0 0 1 1.788 1.745q.683 1.106.792 2.438.51-.23 1.088-.23 1.173 0 2.007.879.833.879.833 2.114 0 1.244-.833 2.123-.834.88-1.998.88l-7.287-.01a.2.2 0 0 1-.113-.097.3.3 0 0 1-.038-.125"/><defs><linearGradient id="a" x1="12.019" x2="12.019" y1="7.288" y2="17.377" gradientUnits="userSpaceOnUse"><stop stop-color="#F80"/><stop offset="1" stop-color="#F30"/></linearGradient></defs></svg>