<svg xmlns="http://www.w3.org/2000/svg" fill="none" viewBox="0 0 24 24"><path fill="#6772E5" d="M19.2 3H4.8A1.8 1.8 0 0 0 3 4.8v14.4A1.8 1.8 0 0 0 4.8 21h14.4a1.8 1.8 0 0 0 1.8-1.8V4.8A1.8 1.8 0 0 0 19.2 3"/><path fill="#fff" fill-rule="evenodd" d="M11.196 9.732c0-.468.384-.648 1.02-.648.912 0 2.064.276 2.976.768v-2.82a7.9 7.9 0 0 0-2.976-.552C9.78 6.48 8.16 7.752 8.16 9.876c0 3.312 4.56 2.784 4.56 4.212 0 .552-.48.732-1.152.732-.996 0-2.268-.408-3.276-.96v2.856a8.3 8.3 0 0 0 3.276.684c2.496 0 4.212-1.236 4.212-3.384-.012-3.576-4.584-2.94-4.584-4.284" clip-rule="evenodd"/></svg>