<svg xmlns="http://www.w3.org/2000/svg" fill="none" viewBox="0 0 24 24"><path fill="#FF500A" d="M7.095 10.321s.305-2.402 0-3.492S6.07 5.175 5.008 5.11s-2.58.92-2.845 3.598a24 24 0 0 0 .067 6.117c.226 1.326.877 3.217 2.007 3.965s2.526.774 3.55-.105c1.022-.88 2.843-5.29 3.561-6.262 0 0-.252 3.23 1.143 4.345 1.396 1.116 3.322.84 4.16-.656.84-1.497 2.765-5.396 3.868-6.984s1.821-2.626 1.316-3.465-2.06-.748-3.07.184-3.456 3.504-3.456 3.504.505-3.91-1.077-4.49c-1.58-.579-3.362 0-5.05 2.442l-2.087 3.02z"/></svg>