<svg xmlns="http://www.w3.org/2000/svg" fill="none" viewBox="0 0 24 24"><path fill="#FF4A00" d="M14.25 12.004c0 .649-.117 1.293-.346 1.9a5.4 5.4 0 0 1-1.9.346h-.008a5.4 5.4 0 0 1-1.9-.346 5.4 5.4 0 0 1-.346-1.9v-.008c0-.649.117-1.293.345-1.9a5.4 5.4 0 0 1 1.901-.346h.008c.649 0 1.293.117 1.9.346a5.4 5.4 0 0 1 .346 1.9zm6.625-1.504h-5.254l3.715-3.715a9.1 9.1 0 0 0-2.122-2.121L13.5 8.379V3.125A9 9 0 0 0 12.005 3h-.01q-.765.002-1.495.125V8.38L6.785 4.664q-.615.437-1.148.972l-.002.001q-.534.534-.971 1.148L8.379 10.5H3.125S3 11.487 3 11.997v.006q.001.766.125 1.497H8.38l-3.715 3.715a9 9 0 0 0 2.121 2.121l3.715-3.715v5.254q.741.125 1.493.125h.013q.751 0 1.494-.125v-5.254l3.715 3.715q.615-.437 1.149-.971v-.001q.534-.535.972-1.15L15.621 13.5h5.254q.125-.741.125-1.493v-.014q-.001-.764-.125-1.493"/></svg>