<svg xmlns="http://www.w3.org/2000/svg" width="100" height="60" fill="none"><path fill="#fff" d="M0 0h100v60H0z"/><path fill="#000" d="M44.132 36.933c-.9 2.075-2.462 3.232-4.704 3.487-.254.034-.509.034-.764.051h-.102a7.3 7.3 0 0 1-2.105-.289c-.866-.238-1.63-.646-2.343-1.19a4 4 0 0 0-.577-.375c-.204-.119-.323-.068-.442.12-.085.135-.17.271-.254.39-.068.086-.153.205-.238.239-.119.05-.289.068-.374.017-.084-.051-.152-.238-.152-.34.152-1.804.34-3.59.509-5.393.034-.289.034-.289.323-.272.492.017.492.017.509.493.068 1.565.628 2.926 1.715 4.049 1.375 1.412 3.65 1.803 5.433.952 1.188-.56 1.868-1.514 2.003-2.84.136-1.276-.101-2.484-.967-3.487-.493-.579-1.138-.97-1.8-1.31-.56-.29-1.155-.51-1.766-.749-1.341-.493-2.649-1.037-3.77-1.956-1.12-.885-1.663-2.058-1.884-3.419-.136-.919-.203-1.837.136-2.722.764-2.058 2.123-3.453 4.38-3.827 1.478-.238 2.904-.068 4.313.408a3.5 3.5 0 0 1 .578.255c.254.12.356.102.56-.085.17-.153.356-.323.56-.442.204-.136.34-.068.374.17.05.29.034.596.067.885.102 1.088.204 2.177.323 3.266.034.272.051.544.068.816.017.187-.05.29-.238.323-.424.085-.373.136-.51-.306-.39-1.276-1.052-2.398-2.037-3.317-.764-.697-1.68-.986-2.7-1.003-.712-.017-1.408.05-2.053.39-.985.511-1.512 1.379-1.681 2.433-.187 1.157-.034 2.246.78 3.147.459.51 1.053.834 1.648 1.14.95.493 2.003.765 3.005 1.123.713.255 1.426.527 2.088.901 1.698.953 2.564 2.467 2.717 4.389.05 1.327-.102 2.636-.628 3.878m35.281-9.151v.425c0 .306-.034.34-.34.34h-.492c-.543 0-.95.221-1.171.732-.459 1.105-.934 2.194-1.376 3.317-1.001 2.466-1.986 4.95-2.971 7.416-.068.136-.17.306-.306.374-.271.136-.509.068-.662-.204-.135-.272-.237-.578-.34-.867-.882-2.586-1.765-5.188-2.648-7.791-.017-.051-.085-.102-.119-.153-.05.05-.102.102-.136.153-1.154 2.722-2.309 5.443-3.446 8.165-.051.12-.102.255-.17.374-.119.238-.306.391-.577.374-.255-.017-.357-.238-.425-.442-.204-.527-.39-1.072-.594-1.599l-3.362-9.134c-.187-.477-.526-.715-1.103-.732h-.73c-.17 0-.255-.068-.238-.255a3.5 3.5 0 0 0 0-.595c-.017-.187.068-.256.254-.238.611.034 1.223.084 1.834.067 1.036 0 2.088-.05 3.124-.067.323 0 .374.034.374.34v.51c0 .153-.068.204-.204.221h-.272c-.305 0-.475.187-.441.493 0 .102.034.205.068.307.764 2.585 1.51 5.154 2.275 7.722.017.069.068.12.102.17.034-.05.102-.102.119-.17.967-2.33 1.918-4.643 2.886-6.974.238-.595-.22-1.344-.849-1.36a3.3 3.3 0 0 0-.577 0c-.153 0-.238-.069-.238-.239v-.493c0-.323.068-.391.408-.374.475.017.95.068 1.426.068 1.07-.017 2.14-.034 3.209-.068.34 0 .407.034.407.39v.477c0 .153-.085.238-.237.238-.17 0-.323.017-.493 0-.39-.034-.594.34-.526.63.102.39.22.782.34 1.173.61 2.008 1.239 3.998 1.85 6.005.017.068.051.153.085.221h.068c.034-.05.05-.119.085-.17.764-2.11 1.545-4.235 2.309-6.345.119-.323.187-.68.204-1.037.017-.426-.238-.647-.663-.647-.628 0-.543.017-.543-.544 0-.562 0-.562.543-.527 1.325.102 2.65.085 3.974 0 .254 0 .305.05.305.323M90.754 38.09c-.034 0-.068.035-.102.052-.05.05-.102.119-.153.17-.322.306-.73.476-1.154.357-.39-.102-.527-.476-.578-.833a9 9 0 0 1-.118-1.361c-.017-2.178 0-4.355-.017-6.532 0-.374-.035-.783-.153-1.14-.306-.901-1.036-1.36-1.936-1.514-1.358-.238-2.666 0-3.888.613-.764.374-1.46.833-2.004 1.514-.39.51-.695 1.054-.679 1.718.017.697.238.901.934.867h.085c.696-.051 1.07-.391 1.206-1.071.084-.443.034-.868-.034-1.293a.79.79 0 0 1 .254-.715 2 2 0 0 1 .39-.255c.629-.272 1.274-.425 1.953-.323.934.136 1.494.527 1.63 1.548.12.816.085 1.633.102 2.466 0 .154-.034.239-.17.306-.679.358-1.358.749-2.037 1.09-.747.373-1.511.714-2.258 1.122a3.4 3.4 0 0 0-1.274 1.14c-.679 1.02-.696 2.126-.305 3.232.22.612.696 1.003 1.324 1.088.696.085 1.41.068 2.088-.187 1.053-.391 2.055-.884 2.819-1.786.017.034.034.034.034.051.017.051.034.12.05.17.17.544.408 1.055.884 1.412 1.07.782 2.988.374 3.565-1.344.085-.17-.254-.578-.458-.561m-4.703-.17c-.459.477-.985.8-1.613.97-1.002.255-1.834-.34-1.885-1.36-.05-.902.22-1.685.934-2.28a7.7 7.7 0 0 1 1.732-1.105c.424-.188.832-.426 1.273-.664v.221c0 1.038-.017 2.058 0 3.096a1.43 1.43 0 0 1-.441 1.123m-28.42-1.398c-.237-.12-.322-.102-.441.119-.883 1.53-2.75 2.313-4.483 1.854-1.307-.34-2.122-1.225-2.682-2.399-.56-1.207-.629-2.5-.51-3.81.017-.17.068-.221.255-.221h7.046c.153 0 .306-.017.442-.034.322-.051.424-.187.424-.51-.017-.63-.204-1.208-.458-1.77-.527-1.173-1.342-2.058-2.632-2.381s-2.58-.238-3.786.272c-1.494.613-2.48 1.786-3.056 3.266-.697 1.786-.663 3.606-.153 5.427.34 1.224 1.001 2.313 2.071 3.044 1.375.953 2.937 1.191 4.55.868 1.766-.34 2.887-1.531 3.65-3.079.17-.391.137-.442-.237-.646m-6.554-7.825c.764-.579 1.613-.783 2.53-.425.696.255 1.07.833 1.274 1.514.084.289.101.595.136.901.033.204-.069.34-.255.391-.153.034-.306.085-.459.085h-4.482c-.051 0-.085 0-.17-.017.289-.952.611-1.837 1.426-2.45"/><path fill="#6D6E71" d="M95 29.209h-.272c-.033-.544-.05-1.072-.084-1.616h-.034l-.51 1.429c-.034.068-.102.17-.17.187-.152.034-.135-.102-.17-.187-.152-.442-.288-.885-.44-1.327-.018-.034-.035-.051-.052-.12-.034.58-.068 1.107-.085 1.65h-.254c.05-.68.085-1.36.136-2.04.34-.068.34-.068.441.22.153.443.306.902.458 1.362.17-.46.323-.919.476-1.361.102-.29.102-.29.441-.255.034.697.085 1.378.12 2.058m-2.241-1.821h-.612v1.82h-.272v-1.82h-.611v-.238h1.494c-.017.085 0 .153 0 .238"/><path fill="#60BB46" d="M28.525 31.216H24.45c-.152 0-.203-.034-.186-.187.017-.323 0-.647 0-.953.017-.374-.034-.765.017-1.14.067-.05.135-.017.22-.017h4.041c.085 0 .153 0 .238-.017a30 30 0 0 0-.17-1.224 12.2 12.2 0 0 0-1.222-3.402c-.748-1.361-1.698-2.552-2.887-3.539-1.494-1.224-3.175-2.058-5.076-2.466a11.8 11.8 0 0 0-4.5-.102c-2.767.493-5.11 1.786-6.944 3.93-2.598 3.044-3.498 6.582-2.7 10.512.662 3.232 2.428 5.75 5.179 7.57 1.494 1.003 3.158 1.598 4.94 1.837.052 0 .12 0 .17.017.017 0 .017.017.034.017h.17c.068 0 .153 0 .22.017.018 0 .018 0 .035.017.119 0 .238.017.356.017h1.138c.102 0 .22 0 .323-.017.017 0 .017-.017.034-.017h.017c.067-.018.135-.018.203-.018.34-.05.696-.085 1.036-.153a11.8 11.8 0 0 0 3.735-1.394 11.8 11.8 0 0 0 2.174-1.616 12.4 12.4 0 0 0 1.952-2.348 12.2 12.2 0 0 0 1.426-3.18c.17-.63.306-1.26.374-1.889-.017-.255 0-.255-.272-.255m-6.604 1.803c-.29.986-.748 1.871-1.444 2.637-.985 1.088-2.207 1.616-3.65 1.735-.985.085-1.97.017-2.904-.34-1.086-.409-1.867-1.191-2.546-2.093-.697-.935-1.02-2.007-1.274-3.113-.305-1.36-.34-2.704.034-4.048.425-1.531 1.274-2.807 2.632-3.675.849-.544 2.36-.935 3.48-.935 1.698-.017 2.904.8 3.787 2.194.322.494.577 1.02.713 1.616.102.477.017.647-.458.766-.595.153-.866.22-1.46.306-2.055.34-4.432.663-6.487.986-.101.018-.17.052-.152.17.101 1.94.56 3.726 2.054 5.104 1.749 1.633 4.177 1.276 5.637.05a4 4 0 0 0 1.257-1.768c.067-.187.186-.238.39-.17a.3.3 0 0 0 .119.034c.34.136.373.17.271.544"/><path fill="#fff" d="M21.631 32.475c-.034-.017-.067-.035-.118-.035-.204-.067-.323-.017-.391.17a4 4 0 0 1-1.256 1.77c-1.46 1.224-3.871 1.582-5.637-.051-1.494-1.378-1.953-3.181-2.055-5.103 0-.12.051-.154.153-.17 2.055-.324 4.432-.647 6.486-.987.594-.102.866-.153 1.46-.306.476-.12.56-.307.459-.766-.136-.578-.391-1.106-.714-1.616-.882-1.395-2.088-2.211-3.786-2.194-1.12 0-2.615.391-3.48.935-1.359.868-2.208 2.127-2.632 3.675-.357 1.343-.34 2.687-.034 4.048.255 1.123.577 2.194 1.273 3.113.68.901 1.46 1.684 2.547 2.092.934.358 1.919.409 2.903.34 1.444-.102 2.666-.646 3.65-1.735.697-.765 1.155-1.65 1.444-2.636.119-.374.085-.408-.272-.544m-9.117-4.576c.102-.68.22-1.344.56-1.957.459-.85 1.138-1.445 2.106-1.633 1.188-.238 2.105.239 2.665 1.412.153.323.272.68.323 1.021 0 .204-.102.29-.238.374-.22.136-.475.17-.713.204-1.511.238-3.005.477-4.516.732-.17.034-.204.017-.187-.153"/><path fill="#60BB46" d="M18.17 26.76c0 .204-.103.29-.239.374-.22.136-.475.17-.713.204-1.51.239-3.005.477-4.516.732-.153.017-.204 0-.17-.17.102-.68.221-1.344.56-1.956.459-.85 1.138-1.446 2.106-1.633 1.188-.238 2.105.238 2.665 1.412.136.357.238.697.306 1.037"/></svg>