<svg xmlns="http://www.w3.org/2000/svg" width="100" height="60" fill="none"><path fill="#fff" d="M0 0h100v60H0z"/><path fill="#5D2E8E" d="M45.84 15.608a1.82 1.82 0 0 0-1.4-.608H12.926c-.578 0-1.065.213-1.4.608-.365.396-.517.883-.425 1.46l2.25 21.63c.122 1.277 1.187 2.86 2.252 3.529l11.134 6.57c.517.305 1.247.487 1.977.487.76 0 1.46-.182 1.978-.486l11.134-6.571c1.095-.609 2.099-2.251 2.25-3.53l2.252-21.628c0-.517-.122-1.065-.487-1.46M36.714 39.58a1.986 1.986 0 0 1-2.738-.517l-5.689-8.366-3.437 3.438v3.802a1.973 1.973 0 0 1-1.978 1.978 1.973 1.973 0 0 1-1.977-1.978V21.45c0-1.095.882-1.977 1.977-1.977s1.978.882 1.978 1.977v7.088l8.487-8.487c.76-.76 2.038-.76 2.799 0 .76.76.76 2.038 0 2.799l-5.02 4.989c0 .03.03.03.03.06l6.085 8.914c.608.912.365 2.13-.517 2.768"/><path fill="#5D2E8E" fill-rule="evenodd" d="M95 22.849v13.78a3.39 3.39 0 0 1-3.377 3.377H45.657l.122-1.46h45.844c1.035 0 1.917-.882 1.917-1.917V22.788c0-1.035-.882-1.917-1.917-1.917H47.635l.122-1.46h43.866c1.856 0 3.377 1.521 3.377 3.438" clip-rule="evenodd"/><path fill="#5D2E8E" fill-rule="evenodd" d="M51.468 25.982c0-.213-.122-.304-.304-.304h-.609V24.43h1.4c.669 0 .973.183.973.883v4.897h.67c.273 0 .608-.09.79-.304l1.765-2.433h1.642l-2.038 2.768c-.365.426-.578.578-.578.578v.03s.274.091.487.578l1.095 2.038c.122.213.274.305.67.305h.425v1.216h-1.065c-.7 0-.912-.121-1.247-.7l-1.369-2.524c-.182-.274-.486-.304-.76-.304h-.578v3.559h-1.46zm7.879.03c0-.213-.122-.304-.305-.304h-.608v-1.247h1.4c.669 0 .973.274.973.913v2.95c0 .365-.03.609-.03.609h.03c.304-.76 1.278-1.673 2.768-1.673 1.765 0 2.555.973 2.555 2.92v3.255c0 .213.122.304.305.304h.608v1.217h-1.4c-.668 0-.973-.274-.973-.973v-3.468c0-1.065-.213-1.886-1.399-1.886-1.156 0-2.069.79-2.373 1.855-.091.304-.122.67-.122 1.004v3.529h-1.46z" clip-rule="evenodd"/><path fill="#5D2E8E" d="M70.967 34.013c1.248 0 2.039-1.278 2.039-2.373v-.274h-.365c-1.096 0-3.043.03-3.043 1.46-.06.64.426 1.187 1.37 1.187m1.674-3.68h.304v-.092c0-1.308-.487-1.795-1.673-1.795-.365 0-1.248.091-1.248.578v.426h-1.369v-.76c0-1.248 1.886-1.4 2.586-1.4 2.434 0 3.073 1.278 3.073 2.95v3.226c0 .212.121.334.304.334h.608v1.217h-1.369c-.669 0-.912-.304-.912-.882 0-.274.03-.426.03-.426h-.03s-.609 1.49-2.373 1.49c-1.278 0-2.555-.79-2.555-2.281.06-2.403 3.376-2.586 4.624-2.586"/><path fill="#5D2E8E" fill-rule="evenodd" d="M76.504 25.769h-.669v-1.247h1.4c.669 0 .973.274.973.973v7.97c0 .213.121.305.304.305h.608v1.216h-1.399c-.67 0-.973-.273-.973-.973v-7.94c.03 0 .06-.304-.244-.304m4.259 2.86h-.973v-1.156h1.003v-2.1h1.4v2.1h1.795v1.156h-1.765v3.437c0 1.49 1.034 1.734 1.552 1.734h.365v1.187s-.183.03-.487.03c-.974 0-2.86-.304-2.86-2.83V28.63zm5.719-4.138h.913c.091 0 .183.091.183.183v1.125a.196.196 0 0 1-.183.183h-.913a.196.196 0 0 1-.182-.183v-1.125q0-.183.182-.183m-.243 4.533c0-.213-.122-.304-.304-.304h-.609v-1.248h1.4c.669 0 .973.274.973.974v5.02c0 .212.122.303.304.303h.609v1.217h-1.4c-.669 0-.973-.273-.973-.973z" clip-rule="evenodd"/><path fill="#F9A61C" fill-rule="evenodd" d="m8.758 20.654-3.674.845 2.553 10.896 3.438-.759z" clip-rule="evenodd"/><path fill="#F9A61C" d="M9.992 20.463 5 20.987l1.221 11.618 4.992-.524z"/></svg>