<svg xmlns="http://www.w3.org/2000/svg" fill="none" viewBox="0 0 24 24"><path fill="#fff" d="M12 16.998a5 5 0 1 0 0-10 5 5 0 0 0 0 10"/><path fill="url(#a)" d="M12 7h8.659a9.997 9.997 0 0 0-17.319.001L7.67 14.5l.004-.001A4.994 4.994 0 0 1 12 7"/><path fill="#1A73E8" d="M12 15.958a3.958 3.958 0 1 0 0-7.916 3.958 3.958 0 0 0 0 7.916"/><path fill="url(#b)" d="M16.33 14.501 12 22a9.998 9.998 0 0 0 8.658-14.999H12l-.002.004a4.993 4.993 0 0 1 4.332 7.496"/><path fill="url(#c)" d="M7.67 14.501 3.34 7.003A9.997 9.997 0 0 0 12 22l4.33-7.499-.002-.003a4.995 4.995 0 0 1-8.658.003"/><defs><linearGradient id="a" x1="3.34" x2="20.659" y1="8.25" y2="8.25" gradientUnits="userSpaceOnUse"><stop stop-color="#D93025"/><stop offset="1" stop-color="#EA4335"/></linearGradient><linearGradient id="b" x1="10.634" x2="19.293" y1="21.866" y2="6.868" gradientUnits="userSpaceOnUse"><stop stop-color="#FCC934"/><stop offset="1" stop-color="#FBBC04"/></linearGradient><linearGradient id="c" x1="13.082" x2="4.423" y1="21.376" y2="6.378" gradientUnits="userSpaceOnUse"><stop stop-color="#1E8E3E"/><stop offset="1" stop-color="#34A853"/></linearGradient></defs></svg>