<svg xmlns="http://www.w3.org/2000/svg" fill="none" viewBox="0 0 24 24"><path fill="#47848F" d="M9.49 6.745c-2.422-.447-4.335.025-5.105 1.342-.572.981-.41 2.298.397 3.69a.234.234 0 0 0 .336.086.234.234 0 0 0 .087-.335c-.72-1.255-.857-2.385-.398-3.193.634-1.093 2.348-1.515 4.584-1.105a.24.24 0 0 0 .286-.199c.025-.137-.05-.26-.187-.286m-3.44 6.733a15.3 15.3 0 0 0 3.701 2.92c3.516 2.024 7.255 2.57 9.106 1.316.112-.074.137-.236.062-.348s-.236-.136-.348-.062c-1.652 1.13-5.205.609-8.571-1.329a14.9 14.9 0 0 1-3.59-2.832.25.25 0 0 0-.348-.013.25.25 0 0 0-.013.348z"/><path fill="#47848F" d="M18.261 13.18c1.59-1.876 2.137-3.764 1.379-5.08-.56-.97-1.752-1.479-3.317-1.504a.25.25 0 0 0-.248.249.25.25 0 0 0 .248.248c1.416.013 2.435.46 2.895 1.255.633 1.093.136 2.782-1.33 4.51a.25.25 0 0 0 .025.347.25.25 0 0 0 .348-.025m-4.074-6.36a15.7 15.7 0 0 0-4.423 1.75c-3.64 2.1-6 5.193-5.677 7.429a.26.26 0 0 0 .286.211.26.26 0 0 0 .211-.286c-.298-1.987 1.95-4.906 5.429-6.919a15.3 15.3 0 0 1 4.285-1.702.25.25 0 0 0 .187-.298.264.264 0 0 0-.298-.186z"/><path fill="#47848F" d="M8.31 17.553c.833 2.31 2.187 3.739 3.715 3.739 1.118 0 2.137-.758 2.944-2.1a.234.234 0 0 0-.087-.335.234.234 0 0 0-.335.087c-.72 1.205-1.603 1.851-2.522 1.851-1.267 0-2.472-1.267-3.242-3.416a.25.25 0 0 0-.323-.15.25.25 0 0 0-.15.324m7.578-.447c.452-1.494.674-3.048.659-4.61 0-4.11-1.441-7.664-3.49-8.57-.125-.05-.274 0-.324.124s0 .273.124.323c1.826.807 3.193 4.174 3.193 8.124.01 1.51-.203 3.012-.634 4.46a.25.25 0 0 0 .162.31c.124.037.26-.037.31-.161m4.671-.249a1.192 1.192 0 1 0-2.384 0 1.192 1.192 0 0 0 2.384 0m-.497 0a.696.696 0 1 1-1.392 0 .696.696 0 0 1 1.392 0M4.646 18.05a1.192 1.192 0 1 0 0-2.385 1.192 1.192 0 0 0 0 2.385m0-.497a.696.696 0 1 1 0-1.392.696.696 0 0 1 0 1.392"/><path fill="#47848F" d="M12.025 5.13a1.192 1.192 0 1 0 0-2.385 1.192 1.192 0 0 0 0 2.385m0-.496a.696.696 0 1 1 0-1.392.696.696 0 0 1 0 1.392m.174 8.708a.87.87 0 0 1-1.019-.659.87.87 0 0 1 .659-1.018.87.87 0 0 1 1.018.658.857.857 0 0 1-.658 1.019"/></svg>