<svg xmlns="http://www.w3.org/2000/svg" fill="none" viewBox="0 0 24 24"><path fill="#000" d="M20.59 8.499c-.405-.976-1.227-2.029-1.871-2.362.525 1.03.828 2.062.944 2.833l.002.008.002.01c.88 2.388.4 4.815-.29 6.299-1.07 2.295-3.66 4.647-7.712 4.532-4.38-.124-8.237-3.372-8.957-7.629-.131-.67 0-1.011.066-1.556-.08.42-.111.541-.152 1.287v.048a9.334 9.334 0 1 0 18.532 1.579l.043-.36c.185-1.6-.02-3.282-.606-4.689z"/><path fill="#000" d="M11.972 10.175c-.016.232-.835 1.033-1.123 1.033-2.654 0-3.084 1.605-3.084 1.605.117 1.351 1.058 2.465 2.198 3.054q.079.039.157.075.136.06.274.112c.391.139.8.218 1.214.235 4.652.218 5.554-5.562 2.197-7.24.86-.149 1.751.197 2.25.547a4.71 4.71 0 0 0-4.09-2.388c-.11 0-.219.01-.327.016a4.67 4.67 0 0 0-2.569.99c.142.12.303.282.64.615.634.624 2.258 1.27 2.262 1.346z"/><path fill="url(#a)" d="M20.59 8.499c-.405-.976-1.227-2.029-1.871-2.362.525 1.03.828 2.062.944 2.833l.003.015c-1.056-2.63-2.845-3.691-4.307-6l-.22-.358a3 3 0 0 1-.102-.193 1.7 1.7 0 0 1-.146-.386.02.02 0 0 0-.015-.008.03.03 0 0 0-.018 0l-.004.003-.007.004.004-.006c-2.344 1.373-3.14 3.913-3.213 5.185a4.67 4.67 0 0 0-2.569.99 3 3 0 0 0-.241-.183A4.3 4.3 0 0 1 8.8 5.752c-.958.436-1.704 1.126-2.246 1.736H6.55c-.37-.469-.344-2.015-.323-2.337-.004-.02-.276.14-.312.165a7 7 0 0 0-.912.781q-.479.486-.871 1.045v.002-.002A7.9 7.9 0 0 0 2.88 9.97l-.013.062a16 16 0 0 0-.092.582l-.002.02a9 9 0 0 0-.151 1.288v.047a9.334 9.334 0 1 0 18.532 1.579l.043-.36c.185-1.6-.02-3.282-.606-4.689zM9.833 15.804l.13.064.006.003zm9.833-6.817-.001-.009z"/><path fill="url(#b)" d="M20.59 8.499c-.405-.976-1.227-2.029-1.871-2.362.525 1.03.828 2.062.944 2.833l.002.008.002.01c.88 2.388.4 4.815-.29 6.299-1.07 2.295-3.66 4.647-7.712 4.532-4.38-.124-8.237-3.372-8.957-7.629-.131-.67 0-1.011.066-1.556-.08.42-.111.541-.152 1.287v.048a9.334 9.334 0 1 0 18.532 1.579l.043-.36c.185-1.6-.02-3.282-.606-4.689z"/><path fill="url(#c)" d="M20.59 8.499c-.405-.976-1.227-2.029-1.871-2.362.525 1.03.828 2.062.944 2.833l.002.008.002.01c.88 2.388.4 4.815-.29 6.299-1.07 2.295-3.66 4.647-7.712 4.532-4.38-.124-8.237-3.372-8.957-7.629-.131-.67 0-1.011.066-1.556-.08.42-.111.541-.152 1.287v.048a9.334 9.334 0 1 0 18.532 1.579l.043-.36c.185-1.6-.02-3.282-.606-4.689z"/><path fill="url(#d)" d="m16.055 9.596.058.043a5 5 0 0 0-.866-1.13c-2.901-2.901-.761-6.29-.4-6.462l.004-.005c-2.345 1.372-3.14 3.913-3.213 5.183a4 4 0 0 1 .328-.016 4.71 4.71 0 0 1 4.089 2.388z"/><path fill="url(#e)" d="M11.972 10.175c-.016.232-.835 1.033-1.123 1.033-2.654 0-3.084 1.605-3.084 1.605.117 1.351 1.058 2.465 2.198 3.054q.079.039.157.075.136.06.274.112c.391.139.8.218 1.214.235 4.652.218 5.554-5.562 2.197-7.24.86-.149 1.751.197 2.25.547a4.71 4.71 0 0 0-4.09-2.388c-.11 0-.219.01-.327.016a4.67 4.67 0 0 0-2.569.99c.142.12.303.282.64.615.634.624 2.258 1.27 2.262 1.346z"/><path fill="url(#f)" d="M11.972 10.175c-.016.232-.835 1.033-1.123 1.033-2.654 0-3.084 1.605-3.084 1.605.117 1.351 1.058 2.465 2.198 3.054q.079.039.157.075.136.06.274.112c.391.139.8.218 1.214.235 4.652.218 5.554-5.562 2.197-7.24.86-.149 1.751.197 2.25.547a4.71 4.71 0 0 0-4.09-2.388c-.11 0-.219.01-.327.016a4.67 4.67 0 0 0-2.569.99c.142.12.303.282.64.615.634.624 2.258 1.27 2.262 1.346z"/><path fill="url(#g)" d="M8.634 7.904q.098.063.194.129a4.3 4.3 0 0 1-.026-2.282c-.96.437-1.705 1.127-2.247 1.736.045 0 1.398-.025 2.08.417z"/><path fill="url(#h)" d="M2.708 12.19c.72 4.257 4.577 7.505 8.956 7.629 4.053.115 6.643-2.238 7.712-4.532.691-1.484 1.171-3.91.29-6.298v-.001l-.001-.01q-.001-.01-.002-.008l.002.016c.332 2.161-.769 4.255-2.487 5.671l-.005.012c-3.35 2.727-6.555 1.645-7.204 1.202l-.136-.067c-1.953-.933-2.76-2.712-2.586-4.238-1.649 0-2.211-1.39-2.211-1.39s1.48-1.056 3.431-.138c1.807.85 3.504.137 3.504.137-.004-.076-1.628-.722-2.26-1.345-.34-.334-.5-.494-.642-.615a3 3 0 0 0-.242-.183l-.193-.128c-.68-.443-2.035-.418-2.08-.417H6.55c-.37-.468-.344-2.014-.323-2.337-.004-.02-.275.14-.311.165a7 7 0 0 0-.912.781q-.48.487-.872 1.046a7.9 7.9 0 0 0-1.253 2.827c-.004.02-.336 1.47-.172 2.221z"/><path fill="url(#i)" d="M15.247 8.509c.34.334.632.714.866 1.13l.14.115c2.116 1.95 1.007 4.707.924 4.903 1.719-1.416 2.819-3.51 2.488-5.671-1.055-2.631-2.844-3.692-4.306-6.002l-.22-.357a3 3 0 0 1-.102-.193 1.7 1.7 0 0 1-.146-.386.02.02 0 0 0-.015-.008.03.03 0 0 0-.018 0l-.004.003-.007.004c-.361.172-2.5 3.56.4 6.462"/><path fill="url(#j)" d="M16.253 9.753a2 2 0 0 0-.14-.114l-.058-.043c-.498-.35-1.39-.696-2.25-.546 3.357 1.678 2.455 7.457-2.196 7.238a4.2 4.2 0 0 1-1.215-.234 5 5 0 0 1-.431-.187l.006.004c.649.443 3.854 1.524 7.204-1.203l.005-.011c.083-.197 1.191-2.954-.924-4.904z"/><path fill="url(#k)" d="M7.765 12.813s.43-1.605 3.084-1.605c.288 0 1.107-.8 1.123-1.033.015-.232-1.697.713-3.504-.137-1.951-.918-3.432.137-3.432.137s.562 1.39 2.211 1.39c-.173 1.527.634 3.305 2.586 4.239l.13.063c-1.14-.589-2.08-1.702-2.198-3.054"/><path fill="url(#l)" d="M20.59 8.499c-.405-.976-1.227-2.029-1.871-2.362.525 1.03.828 2.062.944 2.833l.003.015c-1.056-2.63-2.845-3.691-4.307-6l-.22-.358a3 3 0 0 1-.102-.193 1.7 1.7 0 0 1-.146-.386.02.02 0 0 0-.015-.008.03.03 0 0 0-.018 0l-.004.003-.007.004.004-.006c-2.344 1.373-3.14 3.913-3.213 5.185.109-.008.217-.017.328-.017a4.71 4.71 0 0 1 4.09 2.387c-.5-.349-1.39-.695-2.251-.546 3.357 1.678 2.455 7.458-2.196 7.239a4.1 4.1 0 0 1-1.215-.234 5 5 0 0 1-.431-.187l.007.003-.136-.067.129.064c-1.14-.59-2.08-1.703-2.198-3.055 0 0 .43-1.605 3.084-1.605.287 0 1.107-.8 1.123-1.033-.004-.076-1.628-.722-2.261-1.346-.338-.333-.5-.493-.641-.614a3 3 0 0 0-.242-.183 4.3 4.3 0 0 1-.026-2.28c-.96.436-1.705 1.126-2.247 1.735h-.004c-.37-.468-.344-2.014-.323-2.338-.004-.019-.276.141-.311.166a7 7 0 0 0-.913.781 8 8 0 0 0-.87 1.046h-.001a7.9 7.9 0 0 0-1.252 2.827l-.013.062q-.06.293-.107.588c-.001.007 0-.006 0 0q-.11.647-.138 1.303l-.001.047a9.334 9.334 0 1 0 18.532 1.579l.043-.36c.185-1.6-.02-3.282-.606-4.689zm-.925.48.001.01v-.001z"/><defs><radialGradient id="b" cx="0" cy="0" r="1" gradientTransform="matrix(19.0889 0 0 19.4098 15.531 4.181)" gradientUnits="userSpaceOnUse"><stop offset=".13" stop-color="#FFBD4F"/><stop offset=".28" stop-color="#FF980E"/><stop offset=".47" stop-color="#FF3750"/><stop offset=".78" stop-color="#EB0878"/><stop offset=".86" stop-color="#E50080"/></radialGradient><radialGradient id="c" cx="0" cy="0" r="1" gradientTransform="matrix(19.5661 0 0 19.4098 10 12.203)" gradientUnits="userSpaceOnUse"><stop offset=".3" stop-color="#960E18"/><stop offset=".35" stop-color="#B11927" stop-opacity=".74"/><stop offset=".43" stop-color="#DB293D" stop-opacity=".34"/><stop offset=".5" stop-color="#F5334B" stop-opacity=".1"/><stop offset=".53" stop-color="#FF3750" stop-opacity="0"/></radialGradient><radialGradient id="d" cx="0" cy="0" r="1" gradientTransform="matrix(6.26602 0 0 10.6362 13.786 1.13)" gradientUnits="userSpaceOnUse"><stop offset=".13" stop-color="#FFF44F"/><stop offset=".53" stop-color="#FF980E"/></radialGradient><radialGradient id="e" cx="0" cy="0" r="1" gradientTransform="matrix(8.2901 0 0 9.0868 9.651 17.213)" gradientUnits="userSpaceOnUse"><stop offset=".35" stop-color="#3A8EE6"/><stop offset=".67" stop-color="#9059FF"/><stop offset="1" stop-color="#C139E6"/></radialGradient><radialGradient id="f" cx="0" cy="0" r="1" gradientTransform="matrix(4.40204 0 0 5.36121 11.068 10.206)" gradientUnits="userSpaceOnUse"><stop offset=".21" stop-color="#9059FF" stop-opacity="0"/><stop offset=".97" stop-color="#6E008B" stop-opacity=".6"/></radialGradient><radialGradient id="g" cx="0" cy="0" r="1" gradientTransform="matrix(6.5906 0 0 6.61538 11.328 3.47)" gradientUnits="userSpaceOnUse"><stop offset=".1" stop-color="#FFE226"/><stop offset=".79" stop-color="#FF7139"/></radialGradient><radialGradient id="h" cx="0" cy="0" r="1" gradientTransform="matrix(31.4688 0 0 26.4153 17.347 -.869)" gradientUnits="userSpaceOnUse"><stop offset=".11" stop-color="#FFF44F"/><stop offset=".46" stop-color="#FF980E"/><stop offset=".72" stop-color="#FF3647"/><stop offset=".9" stop-color="#E31587"/></radialGradient><radialGradient id="i" cx="0" cy="0" r="1" gradientTransform="matrix(2.17845 9.74141 -42.14728 9.42528 5.624 7.828)" gradientUnits="userSpaceOnUse"><stop stop-color="#FFF44F"/><stop offset=".3" stop-color="#FF980E"/><stop offset=".57" stop-color="#FF3647"/><stop offset=".74" stop-color="#E31587"/></radialGradient><radialGradient id="j" cx="0" cy="0" r="1" gradientTransform="matrix(18.068 0 0 17.7484 11.395 5.85)" gradientUnits="userSpaceOnUse"><stop offset=".14" stop-color="#FFF44F"/><stop offset=".48" stop-color="#FF980E"/><stop offset=".66" stop-color="#FF3647"/><stop offset=".9" stop-color="#E31587"/></radialGradient><radialGradient id="k" cx="0" cy="0" r="1" gradientTransform="matrix(21.7155 0 0 19.4264 16.085 6.888)" gradientUnits="userSpaceOnUse"><stop offset=".09" stop-color="#FFF44F"/><stop offset=".63" stop-color="#FF980E"/></radialGradient><linearGradient id="a" x1="18.886" x2="3.9" y1="5.024" y2="19.481" gradientUnits="userSpaceOnUse"><stop offset=".05" stop-color="#FFF44F"/><stop offset=".37" stop-color="#FF980E"/><stop offset=".53" stop-color="#FF3647"/><stop offset=".7" stop-color="#E31587"/></linearGradient><linearGradient id="l" x1="17.535" x2="5.551" y1="4.735" y2="17.829" gradientUnits="userSpaceOnUse"><stop offset=".17" stop-color="#FFF44F" stop-opacity=".8"/><stop offset=".6" stop-color="#FFF44F" stop-opacity="0"/></linearGradient></defs></svg>