<svg xmlns="http://www.w3.org/2000/svg" width="20" height="15" fill="none"><path fill="#f7fcff" fill-rule="evenodd" d="M0 0v15h20V0Z"/><path fill="#e31d1c" fill-rule="evenodd" d="M13.74 7.58a3.66 3.66 0 1 1-3.66-3.7 3.67 3.67 0 0 1 3.66 3.7"/><path fill="#3d58db" fill-rule="evenodd" d="M6.47 6.93c.12.93.29 2 1.72 2.08a1.82 1.82 0 0 0 1.94-1.6 1.81 1.81 0 0 1 2.86-1 1.71 1.71 0 0 1 .74 1.35 3.64 3.64 0 0 1-1.84 3.08 3.73 3.73 0 0 1-4.16-.34 3.84 3.84 0 0 1-1.26-3.57"/><path fill="#272727" fill-rule="evenodd" d="m4.56 1.28.57.52-2.65 3.09-.57-.51Zm.94.84.58.52-2.56 3.05L3 5.17ZM7 3.48 6.44 3 3.88 6l.57.52zm8.84-2.41-.57.51 1 1.16.57-.51Zm1.77 2.14-.61.51 1 1.17.57-.52Zm-4.23 0 .62-.47 1 1.17-.57.51Zm2.34 1.62-.57.52 1 1.16.57-.51Zm-1.35-2.44.57-.51 2.77 3.36-.58.52Zm1.91 6.51-.57-.52-1 1.17.57.52zM14.6 11l-.6-.56-1 1.17.57.52 1-1.17Zm2.93-1 .58.52-1 1.17-.58-.52Zm-1 2.62-.58-.52-1 1.17.57.52ZM15 11.24l.58.51L14.51 13l-.58-.52Zm2.29-1.57-.58-.51-1 1.24.57.52ZM4 9.31l.58-.52 2.55 2.93-.57.51Zm.6 2.55.57-.51 1.08 1.18-.57.52Zm-1.91-1.43-.57.57 2.57 3 .57-.51Zm.41-.33.57-.52.94 1.1-.61.51Z"/></svg>