<svg xmlns="http://www.w3.org/2000/svg" fill="none" viewBox="0 0 24 24"><path fill="#00832D" d="m13.182 11.845 1.754 2.006 2.36 1.507.41-3.5-.41-3.423-2.405 1.324z"/><path fill="#0066DA" d="M3 15.033v2.983c0 .682.552 1.234 1.234 1.234h2.983l.617-2.254-.617-1.963-2.047-.617z"/><path fill="#E94235" d="M7.217 4.44 3 8.657l2.17.617 2.047-.617.606-1.936-.606-2.28z"/><path fill="#2684FC" d="M7.217 8.657H3v6.376h4.217z"/><path fill="#00AC47" d="m19.99 6.226-2.694 2.209v6.923l2.706 2.22A.618.618 0 0 0 21 17.09V6.703a.617.617 0 0 0-1.01-.477m-6.808 5.62v3.187H7.217v4.217h8.844c.682 0 1.235-.552 1.235-1.234v-2.658l-4.114-3.513z"/><path fill="#FFBA00" d="M16.06 4.44H7.218v4.217h5.965v3.188l4.114-3.408V5.675c0-.682-.553-1.235-1.235-1.235z"/></svg>