<svg xmlns="http://www.w3.org/2000/svg" fill="none" viewBox="0 0 24 24"><path fill="#FBBC04" d="M14.377 8.37a2.893 2.893 0 0 0-1.08-3.98c-1.41-.803-3.215-.327-4.03 1.067a4 4 0 0 0-.1.19l-2.753 4.71q-.09.14-.169.29l-2.859 4.932 5.11 2.863 2.843-4.891q.093-.14.17-.29l2.751-4.709q.06-.088.117-.181z"/><path fill="#34A853" d="M8.518 18.427c-.81 1.417-2.636 1.938-4.038 1.12a2.936 2.936 0 0 1-1.09-4.006c.81-1.416 2.62-1.94 4.023-1.122s1.915 2.593 1.105 4.008"/><path fill="#4285F4" d="M19.54 9.303a2.92 2.92 0 0 0-3.983 1.064l-2.916 5.04a2.906 2.906 0 0 0 1.06 3.97q.004 0 .008.003a2.92 2.92 0 0 0 3.984-1.064l2.916-5.04a2.905 2.905 0 0 0-1.068-3.973z"/></svg>