<svg xmlns="http://www.w3.org/2000/svg" fill="none" viewBox="0 0 24 24"><path fill="url(#a)" d="M21 11.571c0 4.734-3.953 8.571-8.833 8.571q-1.096-.002-2.113-.248a.9.9 0 0 0-.61.064l-1.933.962a.75.75 0 0 1-1.086-.668v-1.77a.9.9 0 0 0-.3-.658c-1.72-1.565-2.792-3.787-2.792-6.253C3.333 6.837 7.286 3 12.167 3 17.047 3 21 6.837 21 11.571"/><path fill="#000" d="M17.02 8.842a.88.88 0 0 0-.53.18l-2.514 1.853a.3.3 0 0 1-.192.066.3.3 0 0 1-.181-.06l-1.754-1.314a2.03 2.03 0 0 0-1.218-.403c-.696 0-1.336.347-1.712.93l-.535.831-1.82 2.943a.86.86 0 0 0-.03.885.88.88 0 0 0 1.31.285l2.513-1.852a.3.3 0 0 1 .192-.066.3.3 0 0 1 .18.06l1.756 1.314a2.03 2.03 0 0 0 1.217.403 2.03 2.03 0 0 0 1.712-.93l.535-.831 1.82-2.943a.86.86 0 0 0 .03-.885.89.89 0 0 0-.78-.466z" opacity=".05"/><path fill="#000" d="M17.02 9.063a.66.66 0 0 0-.396.136l-2.516 1.854a.535.535 0 0 1-.637.005l-1.754-1.315a1.8 1.8 0 0 0-1.086-.359c-.62 0-1.19.31-1.526.83l-.534.831-1.817 2.94a.64.64 0 0 0-.026.664.68.68 0 0 0 .585.351.66.66 0 0 0 .397-.136l2.516-1.854a.53.53 0 0 1 .637-.005l1.755 1.315c.318.235.692.359 1.085.359.62 0 1.19-.31 1.526-.83l.535-.83 1.817-2.94a.64.64 0 0 0 .026-.665.68.68 0 0 0-.586-.351z" opacity=".07"/><path fill="#fff" d="M16.757 9.375 14.24 11.23a.75.75 0 0 1-.9.005L11.582 9.92a1.597 1.597 0 0 0-2.292.413l-.535.83L6.941 14.1c-.265.413.243.883.636.589l2.518-1.855a.75.75 0 0 1 .9-.004l1.756 1.314c.742.55 1.793.36 2.292-.413l.535-.83 1.815-2.937c.265-.413-.243-.883-.636-.589"/><defs><radialGradient id="a" cx="0" cy="0" r="1" gradientTransform="matrix(21.0283 0 0 20.9275 6.463 20.133)" gradientUnits="userSpaceOnUse"><stop stop-color="#1292FF"/><stop offset=".079" stop-color="#2982FF"/><stop offset=".23" stop-color="#4E69FF"/><stop offset=".351" stop-color="#6559FF"/><stop offset=".428" stop-color="#6D53FF"/><stop offset=".754" stop-color="#DF47AA"/><stop offset=".946" stop-color="#FF6257"/></radialGradient></defs></svg>