<svg xmlns="http://www.w3.org/2000/svg" fill="none" viewBox="0 0 24 24"><path fill="#F62B54" d="M5.24 17.292a2.25 2.25 0 0 1-1.96-1.137c-.394-.7-.37-1.56.062-2.237l4.034-6.335a2.25 2.25 0 0 1 1.991-1.082c.81.02 1.546.473 1.927 1.188a2.17 2.17 0 0 1-.12 2.234l-4.032 6.335a2.25 2.25 0 0 1-1.903 1.034z"/><path fill="#FC0" d="M12.159 17.292a2.24 2.24 0 0 1-1.956-1.134 2.17 2.17 0 0 1 .062-2.232l4.026-6.32a2.25 2.25 0 0 1 1.993-1.105c.82.018 1.564.477 1.94 1.195a2.17 2.17 0 0 1-.145 2.244l-4.026 6.32a2.25 2.25 0 0 1-1.894 1.032"/><path fill="#00CA72" d="M18.923 17.345c1.147 0 2.077-.91 2.077-2.033s-.93-2.033-2.077-2.033-2.076.91-2.076 2.033.93 2.033 2.076 2.033"/></svg>