<svg xmlns="http://www.w3.org/2000/svg" fill="none" viewBox="0 0 24 24"><path fill="url(#a)" d="M9.04 17.07c-.999-1.175-1.638-2.911-1.68-4.86v-.42c.042-1.949.688-3.685 1.68-4.86 1.294-1.673 3.192-2.425 5.337-2.425 1.321 0 2.566.091 3.62.794A8.9 8.9 0 0 0 12.036 3H12a9 9 0 0 0-6.514 15.211 9 9 0 0 0 6.085 2.782c.14.007.288.007.429.007a8.94 8.94 0 0 0 5.998-2.292c-1.055.703-2.23.731-3.551.731-2.138.007-4.12-.689-5.407-2.37z"/><path fill="url(#b)" d="M9.04 6.93c.823-.977 1.891-1.56 3.058-1.56 2.623 0 4.746 2.967 4.746 6.637s-2.123 6.638-4.746 6.638c-1.167 0-2.228-.591-3.058-1.561 1.294 1.673 3.213 2.742 5.35 2.742a6.5 6.5 0 0 0 3.608-1.104 9.03 9.03 0 0 0 2.22-10.397 9 9 0 0 0-2.22-3.033 6.46 6.46 0 0 0-3.607-1.104c-2.145 0-4.064 1.062-5.351 2.742"/><defs><linearGradient id="a" x1="10.499" x2="10.499" y1="3.293" y2="20.738" gradientUnits="userSpaceOnUse"><stop offset=".3" stop-color="#FF1B2D"/><stop offset=".438" stop-color="#FA1A2C"/><stop offset=".594" stop-color="#ED1528"/><stop offset=".758" stop-color="#D60E21"/><stop offset=".927" stop-color="#B70519"/><stop offset="1" stop-color="#A70014"/></linearGradient><linearGradient id="b" x1="15.019" x2="15.019" y1="4.322" y2="19.751" gradientUnits="userSpaceOnUse"><stop stop-color="#9C0000"/><stop offset=".7" stop-color="#FF4B4B"/></linearGradient></defs></svg>