<svg xmlns="http://www.w3.org/2000/svg" fill="none" viewBox="0 0 24 24"><path fill="#27346A" d="M17.194 4.401c-.83-.947-2.332-1.352-4.252-1.352H7.366a.8.8 0 0 0-.788.673l-2.32 14.72a.478.478 0 0 0 .472.553h3.44l.865-5.482-.026.172a.795.795 0 0 1 .785-.674h1.635c3.213 0 5.728-1.304 6.463-5.079q.032-.167.057-.326-.14-.075 0 0c.219-1.396-.002-2.345-.756-3.205z"/><path fill="#27346A" d="M10.353 7.103a.7.7 0 0 1 .301-.068h4.37q.778 0 1.441.105.448.072.88.21.326.108.605.256c.22-1.396-.002-2.345-.756-3.205-.83-.947-2.332-1.352-4.252-1.352H7.366a.8.8 0 0 0-.788.673l-2.32 14.72a.478.478 0 0 0 .471.552h3.442l1.793-11.37a.7.7 0 0 1 .388-.521z"/><path fill="#2790C3" d="M17.893 7.932c-.735 3.774-3.25 5.08-6.463 5.08H9.794a.795.795 0 0 0-.784.673L7.934 20.5a.42.42 0 0 0 .414.484h2.9c.344 0 .636-.25.69-.59l.028-.147.547-3.465.035-.191a.7.7 0 0 1 .69-.59h.433c2.81 0 5.01-1.141 5.654-4.443.268-1.38.13-2.531-.58-3.34a2.8 2.8 0 0 0-.795-.613 9 9 0 0 1-.057.326z"/><path fill="#1F264F" d="M17.18 7.299a5 5 0 0 0-.714-.159 9 9 0 0 0-1.442-.105h-4.37a.696.696 0 0 0-.69.59l-.927 5.888-.027.172a.795.795 0 0 1 .785-.674h1.636c3.212 0 5.728-1.304 6.462-5.079q.032-.168.057-.326a4 4 0 0 0-.77-.307"/></svg>