<svg xmlns="http://www.w3.org/2000/svg" fill="none" viewBox="0 0 24 24"><path fill="#FF4500" d="M12 21a9 9 0 1 0 0-18 9 9 0 0 0 0 18"/><path fill="#fff" d="M17.987 12.086c0-.73-.59-1.31-1.31-1.31-.353 0-.675.14-.911.366-.901-.644-2.135-1.063-3.508-1.116l.6-2.811 1.953.418a.933.933 0 1 0 .934-.976.93.93 0 0 0-.837.525l-2.178-.461a.23.23 0 0 0-.238.096.2.2 0 0 0-.031.086l-.665 3.133c-1.395.043-2.65.462-3.562 1.116a1.32 1.32 0 0 0-1.735-.074 1.307 1.307 0 0 0 .287 2.21 2.4 2.4 0 0 0-.033.397c0 2.017 2.35 3.658 5.247 3.658s5.247-1.63 5.247-3.658c0-.13-.01-.269-.032-.397.45-.204.772-.666.772-1.202m-8.991.933a.934.934 0 1 1 .575.864.93.93 0 0 1-.575-.864m5.225 2.479c-.644.644-1.867.687-2.22.687-.366 0-1.59-.054-2.222-.687a.24.24 0 0 1 0-.344.24.24 0 0 1 .343 0c.408.408 1.267.548 1.878.548.612 0 1.48-.14 1.878-.548a.24.24 0 0 1 .264-.053.2.2 0 0 1 .079.053.26.26 0 0 1 0 .344m-.172-1.535a.934.934 0 1 1 .934-.933.94.94 0 0 1-.934.933"/></svg>