<svg xmlns="http://www.w3.org/2000/svg" fill="none" viewBox="0 0 24 24"><path fill="#36C5F0" fill-rule="evenodd" d="M9.6 3a1.8 1.8 0 0 0 0 3.6h1.8V4.8A1.8 1.8 0 0 0 9.6 3m0 4.8H4.8a1.8 1.8 0 1 0 0 3.6h4.8a1.8 1.8 0 1 0 0-3.6" clip-rule="evenodd"/><path fill="#2EB67D" fill-rule="evenodd" d="M21 9.6a1.8 1.8 0 1 0-3.6 0v1.8h1.8A1.8 1.8 0 0 0 21 9.6m-4.8 0V4.8a1.8 1.8 0 1 0-3.6 0v4.8a1.8 1.8 0 1 0 3.6 0" clip-rule="evenodd"/><path fill="#ECB22E" fill-rule="evenodd" d="M14.4 21a1.8 1.8 0 0 0 0-3.6h-1.8v1.8a1.8 1.8 0 0 0 1.8 1.8m0-4.8h4.8a1.8 1.8 0 0 0 0-3.6h-4.8a1.8 1.8 0 1 0 0 3.6" clip-rule="evenodd"/><path fill="#E01E5A" fill-rule="evenodd" d="M3 14.4a1.8 1.8 0 0 0 3.6 0v-1.8H4.8A1.8 1.8 0 0 0 3 14.4m4.8 0v4.8a1.8 1.8 0 0 0 3.6 0v-4.799a1.8 1.8 0 1 0-3.6-.002s0 .001 0 0z" clip-rule="evenodd"/></svg>