<svg xmlns="http://www.w3.org/2000/svg" fill="none" viewBox="0 0 24 24"><path fill="#25F4EE" d="M10.2 10.089v-.702a5 5 0 0 0-.735-.063 5.458 5.458 0 0 0-3.126 9.935 5.452 5.452 0 0 1 3.861-9.17"/><path fill="#25F4EE" d="M10.332 18.035a2.494 2.494 0 0 0 2.488-2.386V3.752h2.172A4 4 0 0 1 14.93 3h-2.97v11.884a2.494 2.494 0 0 1-2.49 2.403A2.5 2.5 0 0 1 8.32 17a2.5 2.5 0 0 0 2.012 1.035M19.05 7.789v-.661c-.8 0-1.581-.236-2.247-.678a4.12 4.12 0 0 0 2.247 1.34z"/><path fill="#FE2C55" d="M16.802 6.45a4.1 4.1 0 0 1-1.017-2.703h-.793a4.12 4.12 0 0 0 1.81 2.703m-7.337 5.847A2.493 2.493 0 0 0 8.315 17a2.49 2.49 0 0 1 2.017-3.95q.376.005.736.115v-3.024a5 5 0 0 0-.736-.058H10.2v2.3a2.6 2.6 0 0 0-.735-.086"/><path fill="#FE2C55" d="M19.049 7.79v2.299a7.05 7.05 0 0 1-4.12-1.34v6.043a5.467 5.467 0 0 1-5.464 5.456 5.4 5.4 0 0 1-3.126-.989 5.452 5.452 0 0 0 9.446-3.714V9.52a7.06 7.06 0 0 0 4.125 1.322V7.881a4.2 4.2 0 0 1-.861-.092z"/><path fill="#000" d="M14.929 14.792V8.749a7.05 7.05 0 0 0 4.125 1.323v-2.3a4.12 4.12 0 0 1-2.252-1.322 4.12 4.12 0 0 1-1.81-2.703H12.82V15.65a2.495 2.495 0 0 1-4.51 1.362 2.494 2.494 0 0 1 1.149-4.703q.377.004.735.115v-2.3a5.45 5.45 0 0 0-4.93 3.34 5.45 5.45 0 0 0 1.07 5.86 5.4 5.4 0 0 0 3.13.925 5.466 5.466 0 0 0 5.465-5.456z"/></svg>