<svg xmlns="http://www.w3.org/2000/svg" width="24" height="24" fill="none"><path fill="#0ACF83" d="M8.667 23a3.67 3.67 0 0 0 3.666-3.667v-3.666H8.667A3.67 3.67 0 0 0 5 19.333 3.67 3.67 0 0 0 8.667 23"/><path fill="#A259FF" d="M5 12a3.67 3.67 0 0 1 3.667-3.667h3.666v7.334H8.667A3.67 3.67 0 0 1 5 12"/><path fill="#F24E1E" d="M5 4.667A3.67 3.67 0 0 1 8.667 1h3.666v7.333H8.667A3.67 3.67 0 0 1 5 4.667"/><path fill="#FF7262" d="M12.333 1H16a3.67 3.67 0 0 1 3.667 3.667A3.67 3.67 0 0 1 16 8.333h-3.667z"/><path fill="#1ABCFE" d="M19.667 12A3.67 3.67 0 0 1 16 15.667 3.67 3.67 0 0 1 12.333 12 3.67 3.67 0 0 1 16 8.333 3.67 3.67 0 0 1 19.667 12"/></svg>